OFF
873 1742 0
-0.100731 -0.749057 0.655694
-0.782468 -0.543133 -0.30646
-0.59194 0.714843 0.373864
-0.550665 -0.580748 0.600556
0.994978 0.0949019 -0.0466949
-0.351131 0.876377 -0.331417
0.42061 0.877198 -0.234048
-0.184935 -0.225709 -0.957091
0.797962 -0.473331 0.374676
0.781087 -0.0846869 -0.619595
-0.365213 0.28902 0.885582
0.0547298 -0.474652 -0.879135
0.369166 0.845423 0.387486
-0.540352 -0.83628 0.0991144
0.599682 0.433705 -0.673386
0.450692 0.86959 -0.204592
0.821397 -0.0233447 -0.570902
0.923114 0.378064 -0.0780747
0.71751 -0.557941 -0.418389
0.224683 0.294808 0.929394
0.184145 0.981315 0.0654109
0.597598 0.673542 -0.436333
0.316529 0.94591 -0.0789339
0.523819 0.785145 -0.332157
0.882941 -0.279613 -0.378681
0.073052 0.706317 -0.704945
0.657847 0.153616 -0.738111
0.378686 0.913813 -0.150703
0.0476517 0.927092 -0.37336
0.58026 0.807299 0.112851
0.783494 0.26143 0.564764
0.232864 0.928635 -0.290826
0.480779 0.833028 -0.275834
0.66374 0.738907 -0.120967
0.346364 0.829118 -0.440185
0.852955 -0.166995 -0.49573
0.463037 0.886987 0.00432614
0.68197 -0.362159 -0.636338
0.190636 0.258568 -0.947612
0.946453 0.0392824 -0.32226
0.739368 0.0479349 -0.672462
0.499865 -0.145236 -0.854523
0.833098 0.266198 -0.486059
0.564293 0.807317 -0.176014
-0.413258 -0.60988 -0.677076
0.371438 -0.660247 -0.653663
0.264698 -0.964469 0.030036
0.391524 0.855509 -0.34056
0.650615 -0.0959369 -0.754098
0.861723 -0.507439 -0.0332795
-0.126746 0.886288 0.446763
0.409066 0.893814 -0.186895
0.468337 0.878443 -0.100824
0.321256 0.917421 -0.237277
0.576376 0.817049 -0.0373345
0.222682 0.961216 -0.166294
-0.0765611 0.992844 -0.0988794
0.80077 0.589095 0.11359
0.932007 0.26428 0.250375
-0.422353 0.343975 -0.839325
-0.213734 -0.262947 0.941459
0.642759 0.718251 -0.268597
0.80796 0.557835 -0.192878
0.901196 -0.0921733 0.424874
0.487349 -0.24256 0.839538
0.100798 0.965176 -0.24424
-0.061292 0.963841 -0.258243
-0.158679 0.883945 -0.439877
-0.389591 0.662501 -0.63982
-0.941569 0.241667 -0.233997
-0.242085 0.95151 -0.190269
-0.566055 0.823665 -0.00462328
-0.300443 0.945335 0.123161
0.0855517 0.992969 -0.0846181
-0.0112356 0.995514 0.0870468
0.110355 0.939597 0.3241
0.137107 0.780704 0.608825
0.491871 0.553099 0.67244
-0.209723 0.63224 0.746561
0.418286 0.885714 0.198557
0.759394 0.201798 -0.618142
-0.722745 0.417447 -0.550579
-0.702354 -0.125948 -0.701073
0.427609 0.893665 -0.134875
0.404625 0.91332 -0.0538132
0.34563 0.935472 0.0798682
0.255619 0.939257 0.228568
-0.85373 0.513713 0.0923582
-0.935458 -0.101617 0.338902
0.3717 0.89997 -0.22613
0.352971 0.888609 -0.29253
0.307496 0.876481 -0.371568
0.168842 0.85261 -0.495295
0.292524 0.715309 -0.633748
0.241671 0.510923 -0.825612
-0.0945304 0.448761 -0.88906
-0.796809 0.31368 0.516675
0.682344 0.731009 0.0297988
0.687399 0.69537 0.208053
0.784074 0.486865 0.383608
-0.431721 0.890265 -0.143856
-0.662211 0.679793 -0.316565
0.254011 0.856294 -0.449594
0.164354 0.906844 -0.388943
0.256252 0.793419 -0.55106
0.131651 0.782924 -0.607426
-0.0676832 0.79913 -0.596833
-0.151798 0.638574 -0.753991
0.381533 0.749705 -0.541002
0.463476 0.593991 -0.657359
0.727862 0.366988 -0.578783
0.795892 0.462266 -0.391567
0.661168 0.530414 -0.530828
0.544308 0.783235 0.298704
0.499661 0.704001 0.505052
0.456724 0.854584 -0.2457
0.509907 0.835164 -0.207071
0.419246 0.860561 -0.289723
0.557841 0.789132 -0.256651
0.452737 0.825181 -0.337698
0.471571 0.75983 -0.448164
0.413403 0.816633 -0.403723
0.493731 0.673207 -0.550839
0.768382 0.63678 -0.062492
0.518237 0.844587 -0.13758
-0.650456 -0.104679 0.751821
0.793261 -0.323988 -0.514943
0.649724 0.649876 0.393521
0.400849 0.784315 -0.473706
0.545093 0.037814 -0.836816
0.301702 0.0112571 -0.953381
0.452291 0.288889 -0.843686
-0.00485189 0.02334 -1.00023
0.252088 -0.27122 -0.929187
-0.31563 0.0640531 -0.946173
0.926932 -0.121853 -0.354705
0.960163 -0.255238 -0.10937
0.980392 -0.0790002 -0.17747
0.994529 -0.101731 0.0330062
0.93468 -0.328649 0.134021
0.982992 0.0681058 0.169538
0.658952 0.510711 0.551374
0.605207 0.336877 0.721311
0.665459 0.0160135 0.746591
0.907923 0.30768 -0.284683
0.610589 -0.775418 0.160261
0.405172 -0.681186 0.60889
0.728315 -0.277936 0.626081
0.0401322 0.845436 -0.532034
0.450604 -0.415717 -0.789402
-0.0328512 -0.794267 -0.607651
-0.366653 -0.87519 -0.315312
0.814441 -0.428444 -0.389998
0.798717 -0.556747 -0.226087
0.521384 -0.824095 -0.220615
0.71251 -0.699991 -0.0482791
0.893873 -0.386919 -0.225274
0.856361 0.512902 -0.0558817
0.900494 0.421574 0.110637
0.966543 0.251617 0.0570127
0.66256 -0.694205 -0.281037
0.491269 -0.743895 -0.453324
0.188415 -0.919982 -0.342694
-0.0853112 -0.991387 -0.0983693
-0.0370784 -0.950828 0.30571
0.593058 -0.266151 -0.759598
-0.256785 0.781702 -0.569276
-0.431544 0.766873 -0.476209
-0.588803 0.606397 -0.534637
-0.556141 0.454289 -0.696605
-0.668954 0.174364 -0.723239
-0.867707 0.060621 -0.493137
-0.972065 -0.184287 -0.148439
-0.849232 -0.509983 0.138354
-0.854475 -0.260327 -0.448059
0.776067 -0.610631 0.157921
0.662732 -0.659542 0.35332
0.437462 -0.818637 0.371307
0.631702 -0.519048 0.57543
0.165233 -0.844283 0.509891
0.331716 0.693477 0.639644
0.124451 0.560668 0.819258
-0.0726671 0.358046 0.931095
0.00992591 0.0138277 0.999971
0.145468 -0.317363 0.937146
-0.656823 -0.423839 -0.623988
-0.468642 -0.287557 -0.836065
0.407127 0.0463687 0.912802
-0.517523 0.795986 -0.314343
-0.617104 0.76898 -0.167635
-0.787996 0.602153 -0.123972
-0.806667 0.487429 -0.335436
-0.699198 0.713816 -0.0247484
-0.642839 0.746598 0.17374
-0.758254 0.585529 0.28659
-0.881435 0.371807 0.292303
-0.965669 0.257773 0.0474496
-0.676758 0.529236 0.512605
-0.596853 0.347454 0.722744
-0.448267 0.658281 0.605478
-0.459527 0.851664 0.252843
-0.913241 0.142025 0.380445
-0.823105 -0.0243371 0.566755
-0.785361 -0.355494 0.505728
-0.983128 0.0576685 0.171384
-0.976749 -0.185897 0.104243
-0.996389 0.0469244 -0.0725729
-0.95653 -0.00611775 -0.292296
0.964066 -0.12477 0.233478
0.892635 -0.287399 0.346511
0.404658 0.398117 0.823175
-0.902499 -0.327312 0.278066
-0.412312 0.793372 0.44889
-0.267496 0.758773 0.592987
-0.0663979 0.754121 0.653284
-0.288558 0.895778 0.33716
-0.113157 0.959555 0.258387
0.844224 0.11909 -0.522848
0.904801 0.169395 -0.391485
0.953032 0.169761 -0.250398
0.892953 0.00573952 -0.45056
0.927869 0.0963763 0.3607
0.83796 0.0640816 0.543066
0.949032 0.271629 -0.159573
0.206387 0.977575 -0.0504944
-0.904337 0.414586 -0.0997752
-0.793134 -0.500006 0.346128
-0.69513 -0.685253 0.216863
-0.468391 -0.791479 0.3937
-0.720627 -0.689743 -0.0683487
-0.599473 -0.740559 -0.303325
0.717825 0.600532 -0.353336
-0.301601 -0.92867 0.214332
-0.342707 -0.937683 -0.0497347
-0.228983 -0.862963 0.451297
-0.35825 -0.72155 0.593397
-0.336208 -0.499784 0.798206
-0.0652325 -0.489952 0.870041
0.208741 -0.567793 0.796286
-0.697216 0.128096 0.705993
-0.501237 0.0726185 0.86218
-0.253137 0.0577631 0.965031
-0.442953 -0.173482 0.880266
-0.571243 -0.356582 0.739178
0.563799 0.579214 -0.587853
-0.854985 0.295276 -0.427101
0.805069 -0.114515 0.582279
0.568597 -0.579466 -0.584393
-0.928582 -0.369202 -0.0224218
-0.898103 -0.369432 -0.239456
0.285661 -0.810002 -0.511413
0.163642 -0.723698 -0.669948
0.237363 -0.559275 -0.793773
-0.0153204 -0.644905 -0.764162
-0.221407 -0.478992 -0.848922
-0.212757 -0.697101 -0.685582
-0.35857 -0.773662 -0.523065
-0.169308 -0.882004 -0.439805
-0.552627 -0.661181 -0.508341
-0.846581 -0.518934 -0.121405
0.454249 -0.477601 0.751278
0.82958 -0.254603 0.496575
0.755023 -0.401523 0.518252
0.940823 -0.228 -0.25312
0.665935 0.290754 -0.687399
0.570589 0.252727 -0.780786
0.519897 0.377332 -0.766901
0.378386 0.428534 -0.820372
0.49938 0.163302 -0.851361
0.342605 0.180675 -0.921728
0.423985 0.057833 -0.903911
0.398753 -0.0756777 -0.913635
0.271042 -0.130057 -0.954171
0.0628453 -0.181012 -0.981546
0.1484 -0.0292701 -0.988648
0.383051 -0.218542 -0.897929
0.349924 -0.352918 -0.867043
0.204481 -0.417809 -0.885164
0.0838614 -0.331835 -0.939831
-0.0905779 -0.375843 -0.921743
0.115088 0.125137 -0.985675
-0.0842524 0.234901 -0.968124
0.334872 -0.473239 -0.815351
0.424321 -0.543503 -0.723722
0.553023 -0.468456 -0.688618
0.257186 0.377816 -0.889443
0.078074 0.39729 -0.913832
0.0442069 0.562632 -0.826162
0.496617 0.489274 -0.716735
0.377016 0.54459 -0.74977
0.482545 -0.273972 -0.831284
0.257906 0.62365 -0.738465
0.98013 0.052505 -0.194665
0.720468 -0.453779 -0.52511
0.749227 -0.230117 -0.621803
0.0537455 0.248003 -0.966753
-0.0246626 0.337842 -0.941522
-0.156271 0.338329 -0.927813
-0.274539 0.455163 -0.846422
-0.239637 0.204187 -0.949752
-0.158973 0.0688291 -0.984839
-0.392138 0.197472 -0.898729
-0.535809 -0.00147085 -0.843961
-0.535919 0.222152 -0.814689
-0.234148 -0.0728609 -0.969937
-0.399198 -0.0861637 -0.913231
-0.0839782 -0.111121 -0.990459
-0.613517 0.316013 -0.723548
-0.729222 0.279839 -0.624687
-0.779282 0.125132 -0.613871
-0.796628 -0.0364509 -0.602929
-0.874575 -0.101087 -0.475428
-0.928975 -0.166432 -0.331357
-0.788629 -0.197858 -0.583214
-0.687185 -0.278076 -0.670344
-0.592961 -0.210341 -0.777195
-0.568364 -0.361283 -0.738612
-0.416994 -0.458623 -0.784995
-0.532298 -0.504707 -0.680537
-0.765253 -0.346668 -0.542551
-0.717755 -0.509671 -0.474314
-0.817367 -0.407835 -0.407052
-0.705481 0.0267099 -0.70813
-0.611783 -0.547822 -0.570708
-0.294494 0.324681 -0.898593
-0.41308 0.490333 -0.767057
-0.290969 0.579605 -0.761853
-0.258518 0.686211 -0.679022
-0.141974 0.729932 -0.669479
-0.0443355 0.686348 -0.72592
-0.0560082 0.60121 -0.796724
-0.159663 0.537453 -0.828268
-0.00582402 0.144399 -0.989073
-0.3267 -0.357399 -0.875401
0.69794 -0.137496 0.702824
0.576286 -0.107249 0.809598
0.61411 -0.271365 0.741738
0.443646 -0.102532 0.889734
0.221504 -0.0889038 0.971096
0.319127 -0.237139 0.917388
0.287854 -0.413087 0.864034
0.54315 0.0414748 0.838477
0.470109 0.219355 0.854884
0.61662 0.175632 0.768225
0.736286 0.13787 0.662194
0.639748 -0.394735 0.659663
0.374828 -0.860753 -0.344872
0.35556 -0.923074 -0.149797
0.46764 -0.882562 0.0337926
0.155133 -0.977177 -0.145883
0.00304291 -0.960701 -0.276344
-0.191069 -0.94754 -0.256876
0.0663949 -0.997109 0.0333626
0.165406 -0.960285 0.224485
-0.130235 -0.986104 0.10694
0.0331531 -0.890337 -0.453661
0.35862 -0.912496 0.199498
0.270379 -0.893285 0.359128
0.109362 -0.921536 0.373809
-0.0345257 -0.864302 0.501833
0.324291 -0.809941 0.489649
0.242206 -0.740399 0.626802
0.0708796 -0.7695 0.635511
0.0140602 -0.638374 0.769605
-0.178786 -0.612357 0.770093
0.543265 -0.381485 0.747371
0.43271 -0.365352 0.823729
0.554591 -0.484175 0.67742
0.520887 -0.600749 0.60569
0.509527 -0.712895 0.480672
0.599059 -0.622536 0.504806
0.705442 -0.542321 0.456771
0.426386 -0.584993 0.689236
0.336578 -0.535963 0.774923
0.30949 -0.648282 0.695316
0.18305 -0.66969 0.719048
-0.362369 -0.223091 -0.904814
0.874205 0.253798 0.41526
-0.225978 0.973882 -0.0246203
-0.370268 0.928969 -0.0105926
-0.436145 0.892013 0.114424
-0.541778 0.826868 0.154655
-0.562616 0.780941 0.270385
-0.497755 0.785127 0.368443
-0.512025 0.714156 0.476894
-0.612866 0.633772 0.472064
-0.564895 0.572343 0.59466
-0.431464 0.493804 0.755511
-0.63585 0.449762 0.627188
-0.706494 0.322613 0.63039
-0.775034 0.19602 0.601697
-0.705933 0.583833 0.402013
-0.785305 0.446845 0.427945
-0.405109 0.844492 0.34998
-0.32795 0.846176 0.419397
-0.32677 0.794008 0.512045
-0.211653 0.831956 0.514108
-0.0912872 0.827469 0.553128
0.0396838 0.884262 0.465516
0.209608 0.870177 0.44573
-0.412393 0.734878 0.539102
-0.227947 0.877638 0.420763
-0.15922 0.922696 0.349654
-0.024656 0.933967 0.35742
-0.222049 0.939161 0.259893
-0.173917 0.974491 0.142914
-0.331918 0.914271 0.230783
-0.352571 0.701563 0.620068
-0.378833 0.602057 0.702178
-0.296975 0.528049 0.79524
-0.12596 0.510752 0.850705
-0.261711 0.690352 0.674218
-0.156277 0.707051 0.690055
-0.0217448 0.63715 0.771056
0.0161201 0.971595 0.238337
-0.159123 0.774761 0.611414
0.136583 0.969102 0.205667
0.0212691 0.807409 0.590495
0.0513436 0.729496 0.681569
0.194387 0.677664 0.708774
0.323875 0.55597 0.765392
-0.357834 0.414751 0.83666
-0.227155 0.360879 0.904501
-0.160796 0.208548 0.964953
0.0305571 0.203526 0.979176
-0.479418 0.33859 0.809169
-0.570775 0.204312 0.79608
0.177181 0.0905728 0.980128
-0.85064 0.192455 0.489414
-0.881333 0.273507 0.385401
-0.945961 0.225119 0.235934
-0.875065 0.0619493 0.479707
-0.885915 -0.069026 0.458151
-0.874714 -0.235495 0.424624
-0.821482 -0.168896 0.543641
-0.749858 -0.111159 0.651236
-0.729085 -0.268995 0.628977
-0.664896 -0.432793 0.6098
-0.681197 -0.55547 0.477413
-0.92673 0.0178531 0.374734
-0.963435 -0.0121733 0.265641
-0.985708 -0.0685737 0.153442
-0.996637 -0.0772212 0.00676882
-0.958893 -0.168321 0.230886
-0.955755 0.105496 0.276166
-0.944923 -0.275557 0.177999
-0.90187 -0.396646 0.16953
-0.953509 -0.292741 0.0625739
-0.978809 -0.201075 -0.0222816
-0.568088 -0.678115 0.465688
-0.594705 -0.734901 0.32396
-0.499927 -0.829567 0.247707
-0.692701 -0.630165 0.352264
-0.422094 -0.894355 0.149513
-0.317501 -0.944609 0.0819644
-0.21274 -0.976943 -0.00823046
-0.449632 -0.893138 0.0181263
-0.469419 -0.867109 -0.162924
-0.567088 -0.821808 -0.0522592
-0.653974 -0.754308 0.0482799
-0.763335 -0.640634 0.0784769
-0.244322 -0.959837 -0.135966
-0.356092 -0.918173 -0.172107
-0.381738 -0.868926 0.313816
-0.849423 -0.467065 0.248045
-0.780631 -0.581683 0.229769
-0.849273 -0.403583 0.340005
-0.793707 -0.43036 0.428508
-0.726678 -0.451409 0.517024
-0.841718 -0.339055 0.42053
-0.352058 -0.830139 0.432889
-0.290286 -0.79656 0.52966
-0.160406 -0.815404 0.555938
-0.233786 -0.738016 0.633253
-0.313171 -0.633737 0.70657
-0.421448 -0.758117 0.498592
-0.469818 -0.670906 0.572717
-0.438831 -0.589914 0.677712
-0.527527 -0.483456 0.698747
-0.448916 -0.409551 0.794745
-0.320239 -0.361302 0.875364
-0.49285 -0.284926 0.822585
-0.600612 -0.228441 0.766017
-0.549195 -0.128128 0.825933
-0.588914 -0.00617951 0.808843
-0.467296 -0.0484856 0.882238
-0.32237 -0.0860907 0.94217
-0.142903 -0.089011 0.985911
-0.382178 0.049145 0.923328
0.0270874 -0.175493 0.984445
-0.321466 0.169713 0.931939
-0.438133 0.183284 0.879615
-0.680711 0.0108711 0.731668
-0.761174 0.0434733 0.646493
-0.179529 -0.40054 0.899056
-0.0248364 -0.338707 0.940493
-0.260111 -0.905859 0.334011
-0.164895 -0.956124 0.241377
-0.138949 -0.915939 0.37616
-0.678179 0.660394 0.320975
-0.717252 0.664567 0.210945
-0.714824 0.692172 0.0932158
-0.785722 0.618095 0.00822994
-0.795048 0.581569 0.172282
-0.836454 0.48724 0.252022
-0.898445 0.406614 0.1624
-0.852859 0.52102 -0.0459916
-0.910569 0.411894 0.0315582
-0.84795 0.501993 -0.169878
-0.891344 0.380861 -0.243593
-0.77936 0.575185 -0.24778
-0.712475 0.672727 -0.199219
-0.728062 0.582456 -0.36305
-0.747194 0.489493 -0.44823
-0.641155 0.637135 -0.428862
-0.539134 0.701125 -0.467273
-0.487731 0.662517 -0.56948
-0.483287 0.566371 -0.666892
-0.637241 0.768362 0.063195
-0.669262 0.520494 -0.530889
-0.590749 0.52407 -0.613416
-0.64606 0.427291 -0.633306
-0.79583 0.38631 -0.466667
-0.798478 0.287203 -0.529924
-0.854393 0.184671 -0.485347
-0.923214 0.121596 -0.366274
-0.845509 0.388415 -0.36737
-0.898456 0.29866 -0.322248
-0.953386 -0.284985 -0.0964646
-0.93962 -0.273101 -0.205279
-0.904937 -0.281355 -0.317947
-0.914184 -0.38215 -0.131043
-0.623603 0.0913356 0.776583
0.317603 0.791605 0.522038
-0.896997 -0.438288 0.0631015
-0.837746 -0.546148 0.00967046
-0.88517 -0.46453 -0.0389626
0.250264 0.443218 0.86126
0.0918775 0.40155 0.911536
-0.898685 0.217618 -0.38122
-0.482474 0.558812 0.674625
-0.538788 0.455109 0.709443
-0.727184 0.416679 0.544694
0.073616 -0.441081 0.894663
-0.819745 0.0809732 0.56734
-0.579903 -0.794385 -0.1825
-0.681759 -0.703574 -0.199534
-0.693694 -0.644627 -0.321104
-0.49818 -0.819662 -0.280984
-0.505406 -0.758342 -0.411943
-0.770899 -0.616155 -0.163081
-0.613374 -0.67721 -0.4052
-0.639738 -0.601602 -0.479683
-0.920873 -0.21124 0.326288
-0.943762 0.328905 -0.0375599
-0.977417 0.192986 -0.0848754
-0.936418 0.318156 -0.150306
-0.973547 0.108135 -0.19846
-0.990741 0.129602 0.0298849
-0.974544 0.180042 0.133012
-0.948712 0.279562 0.147553
0.867027 0.375222 0.327556
0.834514 0.497754 0.235972
0.745973 0.595831 0.295791
0.810204 0.370379 0.453703
0.727413 0.389522 0.564751
0.699696 0.301072 0.6482
0.636491 0.427279 0.641302
0.536784 0.443586 0.717936
0.507133 0.35139 0.786259
0.434835 0.49091 0.755771
0.563783 0.26409 0.783168
0.582581 0.518889 0.626358
0.58082 0.610877 0.537702
0.487302 0.637666 0.59657
0.412451 0.711439 0.5693
0.417467 0.773208 0.477215
0.506503 0.760971 0.405191
0.407844 0.621773 0.668843
0.457414 0.822897 0.338429
0.384818 0.875401 0.292803
0.278765 0.899501 0.336282
-0.997734 0.00711833 0.0758769
-0.705862 -0.58298 -0.402824
-0.496201 -0.157357 -0.853698
-0.58372 -0.0992709 -0.806372
-0.625699 -0.000565739 -0.779623
-0.577829 0.10769 -0.809235
-0.470973 0.101819 -0.875837
-0.512413 -0.605752 -0.607996
-0.426066 -0.690817 -0.584798
-0.313495 -0.718118 -0.621162
-0.190697 -0.79915 -0.569974
-0.30869 -0.641449 -0.703039
-0.202496 -0.594892 -0.777165
-0.0808279 -0.533266 -0.841662
-0.354542 -0.550362 -0.755713
-0.320767 -0.475924 -0.819483
0.762065 0.00153199 0.646866
0.977879 0.151959 -0.142131
0.977522 0.20517 -0.0439493
0.987873 0.148038 0.0452216
0.99802 0.0258851 0.0550301
0.969548 0.186198 0.156989
0.987599 -0.0478271 0.146865
0.966887 -0.00968065 0.255805
0.957249 0.135036 0.257836
0.998681 -0.0215098 -0.0514662
0.987784 -0.132296 -0.076782
0.974945 -0.220777 0.00799607
0.932038 -0.360977 -0.0101071
0.975523 -0.181651 0.124807
0.942921 -0.245789 0.224767
0.900377 -0.357759 0.247293
0.867994 -0.47714 0.141236
0.92066 0.199621 0.334551
0.94121 -0.0827264 0.327609
0.913539 -0.181778 0.363926
0.922861 -0.00163926 0.385258
0.878374 -0.00658365 0.47881
0.885647 0.0946209 0.455779
0.837028 0.173859 0.518952
0.855668 -0.388675 0.340587
0.838935 -0.47866 0.259799
0.757499 -0.578846 0.300269
0.841531 -0.330978 0.426425
0.703117 -0.669665 0.237521
0.702002 -0.702331 0.117155
0.632799 -0.774383 0.0286734
0.61282 -0.782235 -0.11533
0.611806 -0.740367 0.27724
0.503003 -0.830603 0.241663
0.769257 -0.63721 0.0392803
0.791968 -0.60412 -0.0838405
0.724453 -0.668273 -0.171864
0.572588 -0.72451 0.384663
0.505186 -0.858269 -0.0922916
0.826945 -0.555935 0.080254
0.946197 0.28565 0.15133
0.902258 0.371795 0.216465
0.727473 0.656943 -0.195307
0.0999668 0.839258 0.534199
0.202695 0.819346 0.536975
0.242733 0.751856 0.613479
0.650183 0.0298085 -0.759397
0.186093 0.710188 -0.679457
0.146586 0.636979 -0.75683
0.359531 0.635778 -0.682302
-0.0676957 0.86166 -0.502859
-0.0575344 0.912965 -0.405182
-0.148738 0.931264 -0.331525
-0.166621 0.829769 -0.533333
-0.263709 0.842075 -0.469448
-0.247327 0.894986 -0.371601
-0.277007 0.918996 -0.278676
-0.369538 0.900693 -0.229518
-0.332595 0.933623 -0.132657
-0.465505 0.852709 -0.238988
-0.529277 0.835663 -0.148633
-0.488988 0.870432 -0.0582462
-0.339407 0.789596 -0.51137
-0.369843 0.828067 -0.420622
-0.398057 0.724826 -0.561274
-0.60333 -0.773576 0.193362
-0.184244 -0.509985 0.840354
-0.0549998 -0.237406 -0.970295
-0.393833 -0.275354 0.876517
-0.343537 -0.189848 0.919798
-0.246065 -0.161069 0.955909
-0.149336 -0.189552 0.970613
-0.112893 -0.285035 0.952405
0.907498 0.373263 -0.191142
0.858423 0.420186 -0.294026
0.848408 0.349939 -0.395802
0.784331 0.391739 -0.481686
0.735874 0.484052 -0.474315
0.803453 0.51618 -0.295264
0.881529 0.452318 -0.133198
-0.659746 0.243874 0.710671
-0.983617 -0.00802374 -0.176871
-0.965827 -0.107076 -0.235238
-0.0359104 -0.912786 0.406076
0.0524282 -0.889357 0.453099
0.0604978 -0.83395 0.547393
-0.0335217 -0.805429 0.592502
-0.00496065 0.751023 -0.659381
-0.452422 -0.739635 -0.498141
-0.402205 -0.812683 -0.421713
-0.286812 -0.845301 -0.452171
-0.249995 -0.902266 -0.352164
-0.291795 -0.920263 -0.258247
-0.149753 -0.925415 -0.348533
-0.0668 -0.906944 -0.415575
-0.0860441 -0.850737 -0.518092
0.552582 -0.829659 0.0823712
0.470392 -0.871148 0.143908
0.385948 -0.917552 0.0951448
0.370297 -0.928675 -0.0270808
0.292595 -0.947219 0.128012
0.181524 -0.977331 0.110461
0.0679487 -0.984974 0.154974
0.264022 -0.93794 0.224562
0.0626364 -0.963333 0.262195
-0.0243375 -0.978115 0.204944
-0.023232 -0.994223 0.0985215
-0.0845036 -0.995964 0.00956272
0.00145344 -0.998382 -0.045249
0.0138866 -0.987158 -0.161958
0.101251 -0.993138 -0.0616366
0.204158 -0.978007 -0.0538183
0.257188 -0.956447 -0.140951
0.289376 -0.92038 -0.261293
-0.0875327 -0.973512 -0.209954
0.0918801 -0.970095 -0.226172
0.19314 -0.951847 -0.238964
0.0909089 -0.94154 -0.323722
-0.262535 -0.444764 0.856608
-0.590964 0.710612 -0.381137
-0.685079 -0.197162 0.701206
-0.6519 -0.299275 0.697306
0.659726 0.582218 0.47383
0.72598 0.500217 0.470619
0.722785 0.56846 0.394091
-0.446182 0.00358462 -0.894503
-0.642644 -0.759236 -0.100288
0.388613 -0.888755 -0.244013
-0.790328 -0.610759 -0.0592921
0.840032 -0.525546 -0.134564
0.898971 -0.423474 -0.110851
0.338275 -0.0553251 0.939213
0.292415 0.0573244 0.954676
0.355646 0.174428 0.917762
0.372204 0.292207 0.880384
0.255965 0.15804 0.953386
0.148183 0.20447 0.967517
0.0864122 0.296668 0.951013
0.0390281 -0.542731 0.839164
0.13843 -0.509967 0.848822
0.181047 -0.417361 0.890416
0.239389 -0.338353 0.90967
0.218008 -0.241906 0.945185
0.11857 -0.221712 0.967486
0.117105 -0.114745 0.986267
0.148601 -0.0123506 0.988614
0.110054 -0.602193 0.790414
-0.055452 -0.576683 0.814746
-0.0860195 -0.652143 0.752556
-0.0170283 -0.710973 0.702907
-0.16775 -0.689566 0.704381
0.0830731 -0.692836 0.716613
-0.122339 -0.66215 -0.739846
-0.113538 -0.741134 -0.662335
-0.00826124 -0.724286 -0.68862
0.072618 -0.772266 -0.631065
0.178713 -0.79959 -0.573146
0.179852 -0.868613 -0.462375
0.280311 -0.737698 -0.614335
0.395833 -0.737029 -0.546843
0.0830025 -0.679223 -0.729603
0.0851053 -0.578967 -0.810216
0.187024 -0.643696 -0.74282
0.294251 -0.623719 -0.724065
0.046992 -0.836013 -0.54681
0.497568 -0.671391 -0.550135
0.608291 -0.652447 -0.452983
0.47209 -0.605473 -0.640177
0.388711 -0.804278 -0.448806
0.461721 -0.805023 -0.37122
0.570361 -0.74173 -0.354124
0.282467 -0.866399 -0.412016
0.153487 -0.505689 -0.849541
-0.229616 -0.962859 0.141704
-0.268419 0.263488 0.925876
-0.115749 0.0773069 0.990609
0.59287 -0.763548 -0.258183
0.528947 -0.347953 -0.773294
0.609171 -0.354438 -0.7089
0.671674 -0.271778 -0.689601
0.69982 -0.168978 -0.693911
0.175812 -0.193265 -0.965073
-0.791006 0.50541 0.343015
0.734585 -0.625634 -0.262948
0.769417 -0.549598 -0.327059
0.836366 -0.467699 -0.285697
0.691408 -0.630799 -0.353852
-0.387558 0.583797 -0.713737
-0.129621 -0.874176 0.468078
0.640089 -0.468718 -0.609606
0.654195 -0.54068 -0.528502
-0.517856 0.369386 -0.771792
-0.259246 0.449153 0.855244
-0.0746893 0.983716 0.166582
0.0914287 0.649708 0.754211
-0.432079 -0.505575 0.746248
0.232878 0.144985 -0.961165
-0.915972 0.0105624 -0.399967
-0.843375 0.370106 0.388911
0.48879 -0.0428361 -0.87204
0.575128 -0.0598246 -0.816208
0.583137 -0.160051 -0.796791
0.582644 0.127321 -0.803039
0.376163 -0.448946 0.81005
-0.271519 -0.277629 -0.921047
-0.216118 -0.376468 -0.900923
-0.277157 -0.174432 -0.945351
0.399254 -0.282213 0.872803
0.000876806 0.533839 0.845003
-0.0478558 0.452146 0.890499
-0.144935 0.420738 0.895084
0.170918 0.445689 -0.879361
0.141929 0.532833 -0.833937
0.410487 0.679525 -0.607218
0.356351 0.334148 -0.871892
-0.0669598 0.168539 0.983586
-0.0475552 0.265534 0.963014
0.411142 -0.867771 0.280595
-0.112782 0.993561 0.018295
-0.015667 0.999137 -0.0159066
0.0820203 0.995703 0.0314036
0.0115672 0.985044 -0.172069
0.757042 0.622411 0.198673
0.731934 0.67225 0.105953
0.899251 0.438193 0.00592903
0.857608 0.510203 0.0715326
0.938793 0.343376 0.0181195
0.813397 0.581378 0.0117011
0.020491 -0.0821803 -0.996643
0.908923 -0.409254 0.0768591
0.718587 -0.0501436 -0.692861
-0.822379 -0.262099 0.50615
0.475865 0.115422 0.87226
0.434668 0.894293 0.100113
-0.270905 -0.572279 0.773976
0.211244 0.0481473 -0.976674
0.788024 0.10583 -0.605626
0.288565 0.637331 0.713858
0.22159 0.585752 0.780406
-0.841867 -0.445948 -0.302476
-0.864715 -0.459582 -0.20326
0.411489 -0.747848 0.520021
0.331492 -0.743495 0.58073
0.656842 0.743948 0.125871
0.608236 0.764314 0.217111
0.52145 0.828728 0.202211
0.638628 0.70738 0.303232
-0.137732 0.973481 -0.184269
-0.481146 -0.378552 -0.790065
0.293659 0.355594 0.887192
0.667763 0.594658 -0.446674
-0.716969 -0.435659 -0.543401
-0.0992532 -0.011637 -0.995578
0.289387 0.269627 -0.917854
0.958662 -0.0560602 -0.278323
-0.233694 -0.0430024 0.971354
0.00820463 -0.394848 -0.919051
0.870473 -0.368538 -0.325371
0.854127 -0.152306 0.497235
0.681355 0.215096 0.699963
0.1913 -0.886767 0.421868
-0.991257 -0.0872423 -0.101944
0.335735 0.470615 0.816611
0.787695 -0.213178 0.577733
0.151584 0.473244 0.867162
0.259424 0.956854 0.128782
0.666617 0.449244 -0.595455
0.0103069 0.474939 -0.880163
-0.0342156 -0.0858516 0.99513
-0.119037 0.598891 0.791337
0.0702324 0.103488 0.991839
-0.601471 0.751468 -0.269883
-0.634392 -0.524956 0.56741
-0.629507 0.774533 -0.0669418
0.160419 -0.788941 0.593834
3 398 397 417
3 605 618 616
3 102 103 91
3 32 23 119
3 711 346 725
3 551 230 547
3 265 264 26
3 870 468 438
3 342 731 830
3 853 241 486
3 488 486 241
3 90 89 6
3 191 510 512
3 285 812 851
3 46 697 696
3 270 129 797
3 190 508 506
3 782 152 783
3 104 34 108
3 110 42 80
3 134 300 304
3 83 15 51
3 61 43 33
3 118 43 61
3 116 115 15
3 32 115 116
3 115 32 117
3 6 115 117
3 40 16 9
3 682 358 858
3 262 345 178
3 580 579 79
3 264 80 26
3 343 341 143
3 820 562 57
3 657 658 100
3 776 777 37
3 649 66 28
3 419 76 418
3 51 15 6
3 112 864 244
3 283 149 284
3 188 657 5
3 351 712 461
3 40 834 16
3 258 549 551
3 812 269 851
3 110 80 264
3 92 102 104
3 135 35 220
3 597 594 596
3 80 40 26
3 97 841 821
3 135 24 35
3 695 348 694
3 456 458 457
3 6 117 90
3 349 710 709
3 92 104 105
3 120 108 128
3 735 424 734
3 104 645 105
3 212 394 393
3 210 847 732
3 811 647 93
3 720 127 573
3 400 212 384
3 104 93 645
3 469 433 211
3 35 126 294
3 40 80 834
3 352 708 709
3 53 89 90
3 676 62 672
3 56 845 378
3 67 648 651
3 81 519 521
3 508 509 225
3 230 545 546
3 550 546 229
3 104 108 93
3 59 324 301
3 621 344 222
3 672 677 671
3 423 813 814
3 117 47 90
3 117 119 47
3 53 27 89
3 258 590 686
3 775 165 776
3 16 35 9
3 613 623 614
3 173 460 465
3 502 506 87
3 55 22 27
3 24 126 35
3 218 220 217
3 274 272 779
3 380 200 406
3 132 274 826
3 675 231 111
3 761 282 283
3 433 88 553
3 111 676 672
3 765 284 247
3 219 292 39
3 798 644 48
3 519 168 520
3 646 94 810
3 176 370 635
3 634 153 633
3 615 620 221
3 124 52 54
3 321 320 1
3 65 73 55
3 310 171 309
3 94 285 809
3 629 155 628
3 118 32 116
3 166 651 328
3 611 609 138
3 21 122 120
3 759 758 253
3 411 213 407
3 425 387 541
3 54 52 36
3 799 798 48
3 43 116 124
3 85 36 84
3 326 327 107
3 286 38 295
3 21 244 122
3 80 42 217
3 607 602 138
3 89 51 6
3 611 139 609
3 68 516 662
3 54 36 29
3 552 583 320
3 103 65 31
3 53 90 31
3 84 83 27
3 578 835 420
3 827 139 614
3 102 91 34
3 79 831 85
3 6 15 115
3 33 43 54
3 136 263 137
3 136 137 608
3 52 83 84
3 53 55 27
3 31 55 53
3 843 29 831
3 92 103 102
3 821 57 825
3 269 131 268
3 128 108 34
3 384 383 2
3 569 210 732
3 66 845 819
3 824 638 159
3 125 435 718
3 778 165 799
3 472 234 786
3 415 214 397
3 637 175 632
3 464 211 446
3 28 103 92
3 535 259 726
3 21 23 61
3 300 850 304
3 39 135 220
3 96 429 428
3 23 118 61
3 138 602 604
3 371 178 370
3 462 233 457
3 217 220 16
3 105 148 92
3 93 647 291
3 23 32 118
3 65 55 31
3 102 34 104
3 493 239 390
3 716 832 664
3 84 22 85
3 207 557 525
3 113 842 843
3 304 305 134
3 116 15 124
3 288 266 267
3 122 109 811
3 47 34 91
3 282 149 283
3 36 52 84
3 641 642 399
3 438 452 449
3 226 466 464
3 84 27 22
3 330 865 95
3 562 823 57
3 592 257 688
3 218 144 219
3 89 27 51
3 72 406 404
3 578 575 180
3 132 280 274
3 364 832 474
3 414 75 416
3 1 837 321
3 213 395 407
3 33 54 97
3 90 91 31
3 402 403 216
3 795 525 171
3 511 190 192
3 136 156 263
3 83 51 27
3 28 65 103
3 47 91 90
3 71 381 380
3 704 700 703
3 147 336 345
3 516 168 515
3 103 31 91
3 52 15 83
3 113 577 844
3 71 380 659
3 762 753 754
3 527 69 509
3 648 106 651
3 238 340 737
3 592 693 257
3 859 442 206
3 449 450 228
3 47 121 34
3 731 730 187
3 28 66 65
3 167 660 662
3 97 54 29
3 464 173 465
3 121 128 34
3 421 409 387
3 473 748 474
3 762 754 755
3 526 509 191
3 624 371 176
3 241 853 773
3 151 462 457
3 194 504 780
3 660 166 662
3 765 247 763
3 23 21 120
3 129 800 644
3 595 759 253
3 209 625 622
3 492 484 532
3 398 641 399
3 687 688 151
3 442 205 441
3 450 663 451
3 326 107 331
3 291 94 646
3 300 281 332
3 157 823 822
3 611 604 208
3 273 779 278
3 295 38 280
3 17 824 600
3 199 400 384
3 289 288 267
3 121 120 128
3 25 645 646
3 118 116 43
3 322 309 170
3 47 119 121
3 698 46 696
3 578 180 835
3 796 429 96
3 585 82 586
3 152 782 18
3 600 159 601
3 564 561 99
3 526 527 509
3 769 346 711
3 120 122 108
3 117 32 119
3 12 579 580
3 8 262 371
3 119 120 121
3 23 120 119
3 43 124 54
3 707 708 706
3 124 15 52
3 33 97 123
3 25 646 287
3 185 323 849
3 336 365 345
3 572 141 573
3 841 98 821
3 314 319 313
3 8 371 624
3 335 337 64
3 560 559 430
3 780 796 392
3 287 810 865
3 62 676 231
3 278 133 277
3 143 335 334
3 302 585 586
3 523 522 81
3 447 448 528
3 133 275 276
3 542 389 388
3 506 225 507
3 136 610 728
3 533 399 642
3 365 260 367
3 347 636 697
3 867 806 413
3 609 136 608
3 324 298 297
3 551 549 230
3 696 348 695
3 272 271 275
3 105 645 25
3 478 870 3
3 242 483 481
3 494 716 664
3 129 644 798
3 699 46 698
3 174 319 321
3 300 132 850
3 268 129 270
3 276 290 149
3 67 649 648
3 504 195 780
3 654 70 650
3 646 645 291
3 673 672 144
3 377 561 564
3 572 568 567
3 365 366 260
3 692 350 691
3 403 50 398
3 622 625 8
3 682 858 179
3 220 35 16
3 689 351 690
3 148 28 92
3 218 39 220
3 251 761 756
3 760 761 251
3 145 627 626
3 268 265 800
3 846 318 316
3 310 309 322
3 645 93 291
3 126 37 294
3 514 717 515
3 661 652 660
3 503 500 501
3 153 782 783
3 24 152 126
3 261 262 625
3 434 829 436
3 185 318 323
3 598 334 246
3 521 519 520
3 800 26 644
3 158 638 824
3 239 678 390
3 30 377 564
3 222 246 619
3 466 469 211
3 62 123 157
3 628 155 627
3 261 147 262
3 274 779 273
3 237 494 664
3 168 516 517
3 168 517 520
3 298 95 297
3 816 791 74
3 629 634 155
3 586 82 322
3 455 163 705
3 516 68 517
3 202 493 544
3 700 702 703
3 145 628 627
3 315 314 82
3 311 171 310
3 266 131 267
3 169 325 789
3 576 533 575
3 314 185 319
3 701 698 356
3 323 258 552
3 667 666 480
3 304 306 7
3 767 766 161
3 13 456 453
3 676 111 231
3 359 682 683
3 472 471 234
3 432 88 433
3 10 421 425
3 635 370 369
3 321 837 530
3 653 67 652
3 357 353 701
3 502 503 501
3 42 110 674
3 191 509 508
3 205 443 441
3 441 443 440
3 788 787 293
3 231 21 61
3 151 457 548
3 188 658 657
3 554 196 507
3 122 244 109
3 265 266 264
3 507 560 505
3 509 556 225
3 669 60 670
3 804 802 376
3 685 106 148
3 452 465 227
3 590 591 256
3 234 471 470
3 416 75 86
3 807 806 410
3 647 109 289
3 7 306 665
3 431 428 201
3 317 44 318
3 827 637 49
3 827 614 637
3 592 688 256
3 407 395 400
3 515 168 514
3 496 234 470
3 166 328 327
3 510 511 101
3 301 303 59
3 235 476 475
3 71 518 381
3 451 663 13
3 518 193 381
3 323 589 258
3 324 299 301
3 791 216 414
3 167 515 188
3 169 307 521
3 307 308 521
3 396 397 50
3 607 138 608
3 42 218 217
3 504 87 505
3 441 440 204
3 213 396 395
3 194 499 500
3 443 205 445
3 385 386 384
3 404 402 216
3 605 221 618
3 801 366 340
3 539 527 245
3 339 338 740
3 408 78 411
3 812 131 269
3 284 776 787
3 525 524 171
3 206 558 555
3 393 200 383
3 641 76 642
3 395 212 400
3 429 195 430
3 208 617 612
3 514 513 512
3 514 519 513
3 150 762 693
3 545 457 458
3 380 381 200
3 135 263 24
3 603 58 606
3 615 377 620
3 140 603 606
3 421 387 425
3 63 856 617
3 219 223 599
3 814 424 735
3 524 525 539
3 268 131 265
3 533 12 399
3 641 417 76
3 579 576 577
3 481 482 243
3 383 382 2
3 393 215 406
3 779 272 133
3 131 266 265
3 208 605 616
3 408 411 407
3 387 409 408
3 388 389 198
3 383 200 382
3 398 50 397
3 393 406 200
3 207 525 795
3 214 413 418
3 817 816 74
3 385 384 2
3 239 532 678
3 426 678 532
3 73 224 55
3 85 22 224
3 55 224 22
3 743 868 183
3 152 18 293
3 99 561 562
3 776 165 777
3 671 677 17
3 123 825 157
3 218 219 39
3 85 224 20
3 635 369 177
3 144 223 219
3 721 564 99
3 110 864 675
3 818 20 224
3 819 817 73
3 819 56 817
3 502 501 192
3 356 698 696
3 744 736 363
3 643 642 76
3 266 14 264
3 630 631 145
3 330 287 865
3 290 799 165
3 313 310 82
3 686 256 687
3 777 165 778
3 378 405 816
3 44 593 591
3 46 709 697
3 595 11 759
3 865 810 809
3 340 366 805
3 336 64 365
3 457 233 456
3 316 318 185
3 456 233 454
3 742 743 183
3 840 360 839
3 184 741 495
3 739 339 740
3 859 679 680
3 360 357 177
3 269 268 270
3 741 489 495
3 600 601 4
3 569 342 571
3 602 140 604
3 764 18 784
3 805 337 339
3 109 288 289
3 238 744 375
3 365 64 366
3 483 484 125
3 435 202 434
3 817 818 73
3 455 354 771
3 410 806 867
3 576 12 533
3 388 386 197
3 491 240 488
3 524 539 245
3 831 29 36
3 4 601 602
3 208 612 611
3 289 267 94
3 179 858 360
3 65 819 73
3 41 798 799
3 12 576 579
3 783 855 156
3 356 696 695
3 682 681 358
3 11 277 770
3 842 29 843
3 755 162 715
3 324 297 299
3 490 488 241
3 44 590 589
3 340 805 739
3 588 302 587
3 254 597 333
3 254 333 803
3 522 245 526
3 851 269 794
3 243 437 478
3 693 692 257
3 20 863 85
3 708 352 706
3 653 654 650
3 130 271 272
3 274 130 272
3 371 262 178
3 352 699 700
3 451 463 228
3 666 242 481
3 762 355 693
3 754 250 755
3 574 114 575
3 335 64 336
3 627 175 626
3 840 839 146
3 539 69 527
3 435 493 202
3 503 87 504
3 182 814 735
3 495 670 494
3 345 367 178
3 464 446 173
3 715 714 713
3 94 267 285
3 811 109 647
3 277 133 276
3 291 289 94
3 271 41 275
3 594 255 593
3 269 270 130
3 649 28 148
3 253 758 752
3 4 607 292
3 282 276 149
3 797 129 798
3 130 270 271
3 296 295 281
3 413 792 418
3 272 275 133
3 461 455 233
3 596 44 317
3 758 760 251
3 95 296 297
3 277 276 282
3 299 281 300
3 818 416 20
3 134 299 300
3 647 289 291
3 697 636 348
3 866 487 669
3 350 713 707
3 257 691 689
3 716 480 236
3 354 704 703
3 353 699 701
3 361 360 840
3 456 13 458
3 460 535 726
3 358 353 357
3 757 763 161
3 855 152 24
3 853 487 773
3 278 277 11
3 756 45 757
3 585 302 584
3 290 41 799
3 129 268 800
3 343 830 341
3 830 731 187
3 648 148 106
3 650 66 649
3 170 309 308
3 711 725 347
3 587 322 170
3 297 281 299
3 286 295 296
3 334 336 147
3 97 29 841
3 297 296 281
3 275 41 290
3 244 288 109
3 288 14 266
3 566 30 565
3 244 14 288
3 276 275 290
3 284 775 776
3 792 419 418
3 152 293 126
3 126 293 37
3 247 787 788
3 35 294 9
3 331 330 95
3 303 170 307
3 549 687 548
3 72 378 379
3 710 347 697
3 629 628 636
3 301 299 134
3 344 857 343
3 620 619 618
3 657 100 655
3 792 836 419
3 421 422 790
3 262 147 345
3 281 295 332
3 758 251 753
3 331 95 298
3 330 329 287
3 107 329 330
3 497 354 703
3 790 410 409
3 357 356 815
3 258 551 552
3 307 170 308
3 149 290 775
3 567 565 141
3 677 157 822
3 792 181 836
3 610 139 827
3 610 827 49
3 325 298 59
3 74 791 414
3 332 280 132
3 325 326 298
3 300 332 132
3 174 312 311
3 316 185 314
3 589 590 258
3 800 265 26
3 41 797 798
3 443 88 440
3 320 583 1
3 174 311 313
3 311 310 313
3 735 734 19
3 847 537 19
3 254 594 597
3 498 164 681
3 323 552 320
3 59 298 324
3 862 181 806
3 594 593 596
3 313 319 174
3 686 687 549
3 82 314 313
3 230 546 547
3 528 531 248
3 458 459 724
3 315 82 585
3 315 316 314
3 186 316 315
3 223 600 599
3 30 857 344
3 335 336 334
3 461 163 455
3 587 302 586
3 82 310 322
3 849 323 320
3 547 546 550
3 548 457 545
3 549 548 230
3 725 154 636
3 460 229 459
3 326 331 298
3 329 25 287
3 332 295 280
3 497 703 164
3 327 328 107
3 421 790 409
3 177 815 631
3 303 587 170
3 44 591 590
3 98 563 820
3 659 380 379
3 651 106 328
3 362 683 872
3 746 364 748
3 652 651 166
3 654 655 70
3 655 656 70
3 655 100 656
3 258 686 549
3 107 330 331
3 328 329 107
3 856 246 861
3 516 515 167
3 521 520 169
3 234 498 786
3 512 510 101
3 498 681 786
3 786 681 359
3 688 689 151
3 658 659 100
3 574 572 573
3 835 419 836
3 180 533 643
3 601 603 140
3 569 568 570
3 379 380 72
3 431 544 428
3 180 643 419
3 602 601 140
3 138 609 608
3 142 571 857
3 732 19 731
3 402 50 403
3 341 187 337
3 335 341 337
3 143 341 335
3 590 256 686
3 435 492 493
3 730 427 743
3 577 114 127
3 142 568 569
3 804 305 304
3 572 567 141
3 599 600 4
3 209 261 625
3 4 292 599
3 605 140 606
3 607 137 292
3 344 343 143
3 599 292 219
3 568 142 567
3 580 581 12
3 605 606 221
3 4 602 607
3 209 622 613
3 565 30 564
3 576 114 577
3 452 226 465
3 702 353 358
3 696 697 348
3 453 456 454
3 274 833 130
3 713 349 707
3 369 370 368
3 683 682 179
3 668 669 487
3 242 667 486
3 496 498 234
3 142 569 571
3 370 178 368
3 138 604 611
3 359 681 682
3 701 699 698
3 643 533 642
3 372 260 373
3 802 803 333
3 74 818 817
3 489 866 669
3 366 64 805
3 374 361 840
3 724 459 229
3 365 367 345
3 368 146 369
3 0 473 472
3 625 262 8
3 315 585 584
3 805 339 739
3 483 482 481
3 718 436 719
3 582 441 204
3 867 413 412
3 622 8 623
3 613 622 623
3 614 623 175
3 178 367 368
3 371 370 176
3 154 629 636
3 865 286 296
3 632 155 633
3 139 613 614
3 479 481 243
3 610 49 728
3 374 840 146
3 381 382 200
3 652 166 660
3 367 260 372
3 367 372 368
3 368 372 146
3 144 671 223
3 375 361 374
3 238 373 340
3 373 374 372
3 372 374 146
3 333 186 376
3 737 543 736
3 238 374 373
3 544 390 428
3 740 741 184
3 238 375 374
3 376 305 804
3 226 464 465
3 434 436 435
3 471 475 470
3 247 284 787
3 471 235 475
3 341 830 187
3 386 199 384
3 184 495 543
3 501 518 192
3 74 414 416
3 197 386 385
3 403 398 75
3 555 196 554
3 768 764 784
3 394 215 393
3 394 396 401
3 212 383 384
3 395 394 212
3 395 396 394
3 408 407 199
3 193 382 381
3 519 81 513
3 586 322 587
3 396 50 401
3 212 393 383
3 665 306 273
3 407 400 199
3 412 413 214
3 409 78 408
3 78 412 411
3 390 389 96
3 837 1 838
3 604 140 605
3 829 433 469
3 428 429 201
3 385 391 197
3 774 160 634
3 443 445 553
3 553 88 443
3 450 227 663
3 506 507 87
3 197 391 392
3 768 784 160
3 190 502 192
3 781 782 153
3 482 718 719
3 535 534 536
3 525 69 539
3 793 478 477
3 260 366 801
3 333 317 846
3 378 72 405
3 72 404 405
3 405 404 216
3 75 398 399
3 558 582 204
3 447 248 534
3 531 536 248
3 534 248 536
3 394 401 215
3 742 866 489
3 447 528 248
3 215 401 402
3 401 50 402
3 215 402 404
3 505 560 195
3 380 406 72
3 406 215 404
3 214 417 397
3 731 19 733
3 543 738 184
3 190 506 502
3 507 196 560
3 438 226 452
3 414 403 75
3 541 387 540
3 249 837 838
3 644 26 40
3 206 557 679
3 10 422 421
3 514 512 101
3 422 423 182
3 839 177 369
3 216 403 414
3 411 415 213
3 213 415 396
3 415 397 396
3 411 412 415
3 860 836 537
3 412 214 415
3 794 269 130
3 538 19 537
3 569 570 210
3 733 19 734
3 418 76 417
3 149 775 284
3 474 236 793
3 214 418 417
3 182 538 807
3 474 793 477
3 595 253 750
3 571 342 343
3 426 425 198
3 779 133 278
3 737 738 543
3 429 430 201
3 7 665 279
3 390 96 428
3 182 735 538
3 538 735 19
3 543 495 237
3 864 14 244
3 490 491 488
3 10 491 490
3 485 242 486
3 872 360 361
3 746 748 0
3 666 481 479
3 467 466 226
3 555 554 556
3 492 239 493
3 444 439 201
3 434 432 433
3 472 786 359
3 202 431 432
3 440 88 439
3 444 201 430
3 202 432 434
3 227 460 459
3 512 513 191
3 690 351 461
3 436 203 437
3 432 439 88
3 583 547 1
3 225 554 507
3 432 431 439
3 445 205 447
3 452 450 449
3 483 125 482
3 202 544 431
3 470 475 228
3 475 449 228
3 498 497 164
3 496 497 498
3 453 454 232
3 228 450 451
3 440 439 444
3 789 325 59
3 858 358 357
3 431 201 439
3 555 556 69
3 204 440 444
3 465 460 227
3 557 69 525
3 854 278 11
3 568 77 570
3 535 536 259
3 42 674 673
3 509 69 556
3 556 554 225
3 558 196 555
3 10 772 422
3 205 448 447
3 842 844 98
3 211 445 446
3 530 312 174
3 559 444 430
3 173 535 460
3 510 190 511
3 458 13 459
3 468 467 438
3 784 18 782
3 194 503 504
3 445 447 446
3 633 153 727
3 252 761 760
3 448 205 442
3 691 351 689
3 463 470 228
3 233 455 454
3 476 3 449
3 579 577 113
3 461 233 462
3 13 453 451
3 691 350 712
3 74 416 818
3 452 227 450
3 636 628 694
3 274 280 833
3 547 550 1
3 838 1 550
3 838 550 259
3 186 315 584
3 732 847 19
3 492 532 239
3 466 211 464
3 143 334 598
3 344 143 598
3 593 255 591
3 694 628 145
3 235 474 477
3 453 232 463
3 453 463 451
3 469 466 467
3 438 467 226
3 105 685 148
3 203 469 467
3 437 203 468
3 468 203 467
3 872 361 375
3 192 518 871
3 292 852 39
3 319 185 849
3 747 746 0
3 475 476 449
3 476 477 3
3 235 477 476
3 240 485 488
3 749 747 362
3 472 473 471
3 405 791 816
3 595 750 594
3 423 773 813
3 479 243 478
3 744 363 749
3 473 235 471
3 494 60 480
3 485 486 488
3 684 359 683
3 768 160 774
3 748 364 474
3 500 499 193
3 189 871 658
3 871 511 192
3 242 666 667
3 473 474 235
3 60 667 480
3 477 478 3
3 189 511 871
3 871 518 71
3 347 725 636
3 502 87 503
3 508 225 506
3 787 776 37
3 7 802 804
3 480 479 236
3 670 60 494
3 490 241 423
3 781 153 634
3 504 505 195
3 485 240 484
3 668 60 669
3 667 60 668
3 489 670 495
3 242 485 483
3 483 485 484
3 499 194 391
3 232 497 496
3 495 494 237
3 232 496 463
3 343 342 830
3 864 110 264
3 491 10 425
3 426 491 425
3 240 491 426
3 125 492 435
3 162 755 769
3 515 717 188
3 463 496 470
3 838 259 531
3 493 390 544
3 125 484 492
3 845 66 650
3 238 737 744
3 744 737 736
3 737 340 738
3 739 740 184
3 665 273 278
3 263 855 24
3 62 157 677
3 391 385 499
3 2 499 385
3 301 588 303
3 523 524 245
3 718 435 436
3 193 499 382
3 499 2 382
3 191 508 510
3 434 433 829
3 500 193 501
3 503 194 500
3 856 261 617
3 781 784 782
3 160 784 781
3 510 508 190
3 507 505 87
3 169 517 325
3 520 517 169
3 521 308 81
3 872 683 179
3 387 408 540
3 408 199 540
3 196 559 560
3 501 193 518
3 168 519 514
3 279 595 254
3 750 751 255
3 588 587 303
3 134 588 301
3 563 99 562
3 203 829 469
3 81 522 513
3 308 523 81
3 308 309 523
3 160 781 634
3 245 527 526
3 523 245 522
3 309 524 523
3 309 171 524
3 513 526 191
3 513 522 526
3 780 195 796
3 540 199 386
3 448 172 528
3 446 534 173
3 531 259 536
3 172 529 528
3 679 557 207
3 484 240 532
3 447 534 446
3 532 240 426
3 321 530 174
3 249 529 530
3 530 529 312
3 173 534 535
3 529 531 528
3 529 249 531
3 360 177 839
3 127 563 844
3 529 172 680
3 861 147 261
3 122 811 108
3 848 21 231
3 541 540 386
3 388 541 386
3 198 541 388
3 425 541 198
3 68 785 517
3 68 327 785
3 517 785 325
3 156 727 783
3 271 797 41
3 542 392 96
3 542 96 389
3 197 392 542
3 785 327 326
3 270 797 271
3 197 542 388
3 376 186 584
3 11 770 759
3 230 548 545
3 433 553 211
3 553 445 211
3 591 592 256
3 352 709 699
3 349 709 708
3 306 850 826
3 687 151 548
3 204 444 559
3 560 430 195
3 860 537 847
3 392 796 96
3 685 25 329
3 680 679 207
3 529 680 312
3 648 649 148
3 196 558 559
3 858 357 360
3 558 204 559
3 206 555 557
3 557 555 69
3 312 680 207
3 17 600 223
3 612 613 139
3 569 732 342
3 136 728 156
3 845 56 819
3 821 820 57
3 77 572 574
3 574 573 114
3 142 566 567
3 567 566 565
3 77 578 570
3 575 533 180
3 831 36 85
3 573 127 114
3 206 442 582
3 574 575 578
3 77 574 578
3 77 568 572
3 156 728 727
3 643 76 419
3 581 399 12
3 409 410 867
3 78 409 867
3 584 302 723
3 141 721 720
3 821 825 123
3 158 639 638
3 639 158 562
3 114 576 575
3 773 866 183
3 578 420 570
3 837 249 530
3 79 86 580
3 206 582 558
3 442 441 582
3 580 86 581
3 86 75 581
3 581 75 399
3 551 547 583
3 249 838 531
3 551 583 552
3 546 545 724
3 546 724 229
3 376 584 305
3 244 21 848
3 244 848 112
3 255 592 591
3 545 458 724
3 318 589 323
3 318 44 589
3 796 195 429
3 254 595 594
3 850 132 826
3 636 694 348
3 693 355 692
3 56 378 816
3 257 689 688
3 604 605 208
3 631 695 694
3 346 769 766
3 631 694 145
3 593 44 596
3 752 753 150
3 597 596 317
3 617 209 612
3 7 804 304
3 597 317 333
3 7 279 803
3 803 279 254
3 95 865 296
3 752 758 753
3 592 150 693
3 344 598 222
3 598 246 222
3 617 261 209
3 612 139 611
3 616 618 63
3 726 259 550
3 398 417 641
3 601 159 603
3 825 57 823
3 634 633 155
3 607 608 137
3 612 209 613
3 640 123 62
3 624 175 623
3 17 822 824
3 136 609 610
3 610 609 139
3 337 187 729
3 339 337 729
3 176 626 624
3 566 142 857
3 618 619 63
3 208 616 617
3 606 615 221
3 58 615 606
3 561 58 639
3 615 561 377
3 615 58 561
3 633 727 49
3 624 623 8
3 63 617 616
3 620 222 619
3 145 626 630
3 857 571 343
3 221 620 618
3 30 344 621
3 377 30 621
3 377 621 620
3 620 621 222
3 630 626 176
3 726 550 229
3 627 155 632
3 626 175 624
3 721 99 722
3 159 638 603
3 627 632 175
3 775 290 165
3 638 58 603
3 825 823 157
3 285 851 38
3 635 177 631
3 630 635 631
3 176 635 630
3 460 726 229
3 164 702 358
3 614 175 637
3 633 49 637
3 633 637 632
3 728 49 727
3 828 40 9
3 828 644 40
3 48 644 828
3 678 198 389
3 826 274 273
3 639 58 638
3 672 671 144
3 562 158 823
3 420 835 836
3 561 639 562
3 62 231 640
3 640 231 61
3 321 319 849
3 61 33 640
3 33 123 640
3 321 849 320
3 822 823 158
3 773 183 813
3 678 426 198
3 110 675 674
3 565 564 721
3 141 565 721
3 677 822 17
3 822 158 824
3 678 389 390
3 584 723 305
3 67 650 649
3 5 655 654
3 379 100 659
3 658 71 659
3 378 656 379
3 653 650 67
3 5 654 653
3 436 437 719
3 38 794 280
3 480 666 479
3 378 70 656
3 657 655 5
3 256 688 687
3 379 656 100
3 692 691 257
3 67 651 652
3 662 516 167
3 662 327 68
3 166 327 662
3 482 719 243
3 125 718 482
3 5 653 661
3 661 653 652
3 227 459 663
3 661 188 5
3 167 188 661
3 719 437 243
3 663 459 13
3 661 660 167
3 73 818 224
3 870 449 3
3 438 449 870
3 357 815 177
3 356 695 815
3 56 816 817
3 834 80 217
3 489 669 670
3 667 668 486
3 671 17 223
3 673 674 111
3 38 851 794
3 672 62 677
3 673 111 672
3 673 144 218
3 42 673 218
3 835 180 419
3 306 826 273
3 674 675 111
3 420 836 860
3 293 787 37
3 681 164 358
3 570 420 860
3 685 329 328
3 106 685 328
3 684 472 359
3 0 472 684
3 685 105 25
3 363 746 747
3 684 683 362
3 744 749 375
3 251 756 754
3 707 706 163
3 759 252 760
3 770 252 759
3 462 690 461
3 151 690 462
3 689 690 151
3 759 760 758
3 771 354 497
3 712 350 707
3 714 710 349
3 179 360 872
3 707 349 708
3 704 352 700
3 706 352 704
3 706 704 705
3 357 701 356
3 832 236 474
3 700 699 353
3 709 46 699
3 712 707 163
3 691 712 351
3 712 163 461
3 354 705 704
3 263 156 855
3 772 423 422
3 455 705 354
3 479 478 793
3 494 480 716
3 711 710 714
3 162 711 714
3 703 702 164
3 700 353 702
3 709 710 697
3 705 163 706
3 789 307 169
3 355 755 715
3 45 763 757
3 833 280 794
3 713 714 349
3 711 347 710
3 277 282 252
3 277 252 770
3 754 756 250
3 162 714 715
3 355 715 692
3 715 350 692
3 715 713 350
3 437 468 870
3 478 437 870
3 375 749 362
3 375 362 872
3 514 101 717
3 305 723 134
3 723 588 134
3 7 803 802
3 721 722 720
3 127 720 722
3 722 99 563
3 37 777 294
3 829 203 436
3 869 189 658
3 141 720 573
3 127 722 563
3 723 302 588
3 339 729 338
3 187 730 729
3 729 730 338
3 543 237 736
3 732 731 342
3 338 743 742
3 730 731 733
3 730 733 427
3 363 745 746
3 733 734 427
3 241 773 423
3 423 814 182
3 20 416 863
3 768 774 154
3 629 774 634
3 154 774 629
3 746 745 364
3 738 340 739
3 730 743 338
3 338 742 741
3 742 489 741
3 738 739 184
3 802 333 376
3 112 848 675
3 806 181 792
3 413 806 792
3 745 664 364
3 749 363 747
3 766 757 161
3 736 237 745
3 747 684 362
3 237 664 745
3 0 684 747
3 338 741 740
3 736 745 363
3 594 750 255
3 0 748 473
3 253 752 750
3 833 794 130
3 751 150 592
3 255 751 592
3 252 282 761
3 355 762 755
3 150 753 762
3 761 283 45
3 761 45 756
3 752 751 750
3 752 150 751
3 753 251 754
3 161 768 767
3 161 764 768
3 283 284 765
3 405 216 791
3 108 811 93
3 763 764 161
3 250 757 766
3 769 250 766
3 813 183 868
3 785 326 325
3 162 769 711
3 346 767 725
3 346 766 767
3 250 756 757
3 247 764 763
3 767 768 154
3 807 538 806
3 808 410 790
3 45 283 765
3 45 765 763
3 767 154 725
3 755 250 769
3 59 303 789
3 789 303 307
3 232 771 497
3 454 771 232
3 455 771 454
3 783 727 153
3 236 479 793
3 871 71 658
3 863 416 86
3 10 490 772
3 490 423 772
3 864 112 675
3 865 809 286
3 294 778 9
3 14 864 264
3 294 777 778
3 194 780 391
3 780 392 391
3 247 788 764
3 788 18 764
3 293 18 788
3 773 487 866
3 810 94 809
3 646 810 287
3 422 808 790
3 312 207 795
3 312 795 311
3 311 795 171
3 778 799 48
3 373 801 340
3 260 801 373
3 848 231 675
3 856 861 261
3 64 337 805
3 101 511 869
3 813 424 814
3 868 734 424
3 427 734 868
3 743 427 868
3 813 868 424
3 285 38 286
3 809 285 286
3 863 86 79
3 863 79 85
3 815 695 631
3 422 182 808
3 182 807 808
3 808 807 410
3 742 183 866
3 263 135 852
3 852 135 39
3 263 852 137
3 292 137 852
3 267 812 285
3 267 131 812
3 66 819 65
3 563 562 820
3 317 318 846
3 853 668 487
3 824 159 600
3 97 821 123
3 842 98 841
3 821 98 820
3 716 236 832
3 845 70 378
3 664 832 364
3 834 217 16
3 778 48 828
3 778 828 9
3 844 563 98
3 844 577 127
3 850 306 304
3 839 369 146
3 842 841 29
3 113 844 842
3 579 113 843
3 579 843 79
3 79 843 831
3 70 845 650
3 333 846 186
3 186 846 316
3 486 668 853
3 854 11 595
3 279 854 595
3 279 665 854
3 854 665 278
3 783 152 855
3 619 246 856
3 619 856 63
3 30 566 857
3 859 448 442
3 172 448 859
3 172 859 680
3 679 859 206
3 210 860 847
3 570 860 210
3 334 861 246
3 334 147 861
3 538 537 862
3 836 862 537
3 78 867 412
3 836 181 862
3 538 862 806
3 869 511 189
3 717 101 869
3 717 869 188
3 188 869 658

